<svg width="128" height="128" viewBox="0 0 128 128" fill="none" xmlns="http://www.w3.org/2000/svg">
<path d="M84.37 47.48C83.9897 47.2586 83.7074 46.9012 83.58 46.48C83.5719 46.4512 83.5727 46.4207 83.582 46.3924C83.5914 46.364 83.6091 46.3391 83.6327 46.3209C83.6563 46.3026 83.6849 46.2918 83.7147 46.2899C83.7445 46.288 83.7742 46.295 83.8 46.31C84.03 46.43 84.27 46.54 84.52 46.65C85.5485 47.1971 86.6399 47.6169 87.77 47.9C88.5219 48.0676 89.2896 48.1547 90.06 48.16C90.3091 48.1565 90.5572 48.1263 90.8 48.07C90.9161 48.0519 91.0301 48.0217 91.14 47.98C91.4152 47.8703 91.6769 47.7294 91.92 47.56C92.0935 47.4221 92.2987 47.3297 92.517 47.2913C92.7354 47.2528 92.9598 47.2696 93.17 47.34C93.2561 47.3753 93.3369 47.4224 93.41 47.48L93.57 47.64L93.71 47.89C93.7425 48.0053 93.7692 48.1221 93.79 48.24C93.79 48.74 93.79 49.24 93.72 49.79L93.63 50.66C93.5803 51.06 93.5102 51.4572 93.42 51.85C93.09 53.28 92.81 54.53 92.52 55.85C92.4478 56.0752 92.3942 56.306 92.36 56.54C92.3275 56.7136 92.2807 56.8842 92.22 57.05C92.22 57.19 92.11 57.34 92.03 57.52C91.9807 57.6324 91.9204 57.7396 91.85 57.84C91.8001 57.9271 91.7396 58.0077 91.67 58.08C91.617 58.1341 91.5602 58.1842 91.5 58.23C91.3987 58.3023 91.2876 58.3595 91.17 58.4L91.52 58.19C91.4071 58.2949 91.2745 58.3765 91.13 58.43C91.0363 58.4609 90.9386 58.4777 90.84 58.48C90.6632 58.4891 90.4873 58.4511 90.33 58.37C90.255 58.341 90.1869 58.2967 90.13 58.24L90 58.14L89.92 58C89.8624 57.914 89.8186 57.8195 89.79 57.72C89.7463 57.5765 89.7162 57.4291 89.7 57.28C89.7 57.07 89.7 56.89 89.7 56.72V55.78C89.7 55.22 89.7 54.78 89.7 54.63C89.7365 54.1311 89.7028 53.6295 89.6 53.14C89.52 52.91 89.6 52.94 89.48 52.86C89.36 52.78 89.39 52.79 89.22 52.86C89.1112 52.9143 88.9973 52.9579 88.88 52.99C88.5613 53.0795 88.2738 53.2561 88.05 53.5C87.6875 53.8528 87.307 54.1866 86.91 54.5C86.6978 54.6339 86.4774 54.7541 86.25 54.86C86.05 54.96 86.03 54.8 86.06 54.72C86.09 54.64 85.99 54.59 85.93 54.57C85.87 54.55 85.93 54.57 85.87 54.57C86.0919 54.0964 86.3967 53.6663 86.77 53.3C87.1424 52.8137 87.5684 52.3709 88.04 51.98C88.2851 51.7859 88.5627 51.6369 88.86 51.54C89.2467 51.3941 89.6733 51.3941 90.06 51.54C90.5114 51.7296 90.8704 52.0886 91.06 52.54C91.2976 53.1205 91.4426 53.7346 91.49 54.36C91.55 54.86 91.56 55.22 91.57 55.36C91.5901 55.6163 91.5901 55.8737 91.57 56.13V56.65C91.56 56.8065 91.56 56.9635 91.57 57.12C91.57 57.21 91.57 57.27 91.57 57.31C91.57 57.35 91.41 57.31 91.25 57.37L91 57.3C90.9572 57.2898 90.9127 57.2898 90.87 57.3C90.77 57.39 90.78 57.37 90.77 57.39C90.768 57.3494 90.7548 57.3102 90.7318 57.2766C90.7089 57.2431 90.6771 57.2166 90.64 57.2L90.81 57.29C90.7927 57.2229 90.7541 57.1633 90.7 57.12C90.6294 57.0277 90.5451 56.9468 90.45 56.88C90.3892 56.8423 90.3323 56.7987 90.28 56.75L90.36 56.55C90.36 56.38 90.47 56.21 90.51 56.04L90.67 55.43C90.87 54.79 90.97 54.12 91.24 53.43C91.2838 53.3029 91.3173 53.1725 91.34 53.04C91.55 51.91 91.8 50.67 91.95 49.63C91.9549 49.5935 91.9549 49.5565 91.95 49.52C91.95 49.52 91.95 49.38 91.95 49.43H91.89C91.8254 49.4644 91.7586 49.4945 91.69 49.52L91.06 49.67C90.649 49.7246 90.2343 49.7447 89.82 49.73C89.0358 49.6714 88.2608 49.5238 87.51 49.29C86.7527 48.9914 86.0232 48.6266 85.33 48.2C85.06 48.13 84.54 47.58 84.37 47.48Z" fill="currentColor"/>
<path d="M91.84 41.5C91.2858 41.9522 90.58 42.176 89.8665 42.1258C89.153 42.0757 88.4855 41.7553 88 41.23C85.73 38.86 88.76 34.74 91.69 37.92C92.1761 38.3798 92.4637 39.011 92.4917 39.6796C92.5198 40.3481 92.2859 41.0012 91.84 41.5Z" fill="currentColor"/>
<path d="M26.72 85.21C28.6941 77.641 30.2135 69.9606 31.27 62.21C31.65 59.38 31.89 56.53 32.16 53.69C32.62 48.69 32.88 43.69 32.86 38.6C32.872 33.5756 32.4707 28.5586 31.66 23.6C31.3044 21.4039 30.7488 19.2449 30 17.15C29.6369 16.1355 29.1782 15.1577 28.63 14.23C28.14 13.3591 27.4556 12.613 26.63 12.05C26.1407 11.7603 25.5733 11.6307 25.0068 11.6791C24.4403 11.7275 23.903 11.9515 23.47 12.32C22.4545 13.1428 21.6491 14.195 21.12 15.39C20.5188 16.6316 20.0366 17.9274 19.68 19.26C19.2881 20.5987 18.9841 21.9616 18.77 23.34C18.58 25.03 18.2 24.87 17.83 23.34C17.3659 20.6882 17.6641 17.959 18.69 15.47C19.2723 13.9263 20.1485 12.5101 21.27 11.3C21.9264 10.6147 22.7205 10.0763 23.6 9.72C24.5884 9.3501 25.6716 9.31845 26.68 9.63C27.6051 9.94313 28.437 10.4829 29.1 11.2C29.6846 11.8037 30.1949 12.4751 30.62 13.2C31.3908 14.5703 32.0143 16.0184 32.48 17.52C33.3629 20.4114 33.9821 23.3769 34.33 26.38C34.7038 29.3569 34.9274 32.3507 35 35.35C35.2013 42.6177 34.9642 49.8909 34.29 57.13C33.4688 65.0822 32.163 72.9769 30.38 80.77C29.26 85.56 28 90.32 26.57 95C25.49 98.56 24.31 102.1 23.02 105.59C22.3653 107.262 21.8894 108.998 21.6 110.77C21.3395 112.432 21.6951 114.132 22.6 115.55C23.2876 116.587 24.3411 117.326 25.55 117.62C26.7895 117.905 28.0835 117.843 29.29 117.44C31.76 116.76 33.58 114.71 34.95 112.44C35.5357 111.407 36.0567 110.338 36.51 109.24C37.39 107.17 37.87 105.73 38.32 104.76C38.5906 104.037 39.0293 103.389 39.6 102.87C39.79 102.687 39.9977 102.522 40.22 102.38C40.81 102.1 40.72 104.02 39.74 107.38C39.0102 109.964 37.9195 112.431 36.5 114.71C35.7122 115.952 34.7335 117.062 33.6 118C32.3921 118.976 30.9914 119.685 29.49 120.08C27.9252 120.48 26.2848 120.48 24.72 120.08C23.8972 119.846 23.1173 119.481 22.41 119C21.7066 118.495 21.0888 117.881 20.58 117.18C19.6254 115.795 19.078 114.17 19 112.49C18.9625 110.971 19.165 109.456 19.6 108C20.14 105.94 20.91 104.06 21.54 102.23C22.17 100.4 22.82 98.5 23.41 96.62C24.61 92.86 25.69 89.05 26.66 85.22L26.72 85.21Z" fill="currentColor"/>
<path d="M90.92 7.48C93.0035 7.28225 95.1022 7.30908 97.18 7.56C99.3747 7.83784 101.481 8.59581 103.35 9.78C104.262 10.3925 105.107 11.0998 105.87 11.89C106.06 12.09 106.25 12.28 106.43 12.49L106.94 13.17L107.45 13.86C107.59 14.1 107.71 14.35 107.84 14.59C108.816 16.468 109.472 18.4959 109.78 20.59C110.257 23.5116 110.467 26.4704 110.41 29.43C110.245 34.5568 109.774 39.6692 109 44.74C108.29 49.74 107.43 54.74 106.55 59.74C105.76 64.16 105.02 68.62 104.35 73.02C103.91 75.84 103.53 78.68 103.21 81.51C103.05 82.92 102.92 84.34 102.82 85.74C102.684 87.1322 102.637 88.5318 102.68 89.93C102.85 91.6 102.47 91.54 101.79 90.07C100.922 87.5846 100.615 84.9381 100.89 82.32C101.39 76.4 102.31 70.61 103.31 64.83C104.31 59.05 105.31 53.29 106.31 47.5C107.515 40.4637 108.028 33.3263 107.84 26.19C107.64 22.36 107.14 18.39 105.31 15.29L104.53 14.24C104.23 13.9 103.9 13.57 103.53 13.24C102.866 12.6244 102.131 12.0906 101.34 11.65C99.7248 10.7679 97.9365 10.2492 96.1 10.13C93.7277 9.9869 91.3472 10.0673 88.99 10.37L81.71 11.16C74.38 12 67 12.7 59.57 12.93C53.8626 13.1838 48.144 12.9765 42.47 12.31C41.22 12.18 40 11.93 38.74 11.7C34.1 10.7 32.74 9.84 32.05 8.85C31.8778 8.63527 31.7271 8.40416 31.6 8.16C31.5 7.82 31.93 7.7 32.79 7.77C33.65 7.84 34.89 8.18 36.53 8.48C46.15 10.61 56.68 10.58 67.21 9.81C75.07 9.23 82.89 8.22 90.91 7.41L90.92 7.48Z" fill="currentColor"/>
<path d="M84.39 98.66L73.55 99.66C72.24 99.79 70.92 99.98 69.55 100.1C64.9 100.52 60.22 100.85 55.55 101.1C53.47 101.1 51.38 101.24 49.32 101.26C47.99 101.26 46.66 101.26 45.32 101.26C43.98 101.26 42.67 100.98 41.32 100.79C40.5 100.66 40.62 100.55 41.32 100.36C42.02 100.17 43.32 99.82 44.82 99.59C50.17 99.41 55.47 98.9 60.89 98.75C64.12 98.62 67.47 98.13 70.77 97.75L81.68 96.61L88.4 95.93C91.78 95.57 95.19 95.24 98.55 94.82C101.209 94.3455 103.921 94.2379 106.61 94.5C107.226 94.5809 107.835 94.7114 108.43 94.89C110.68 95.69 111.16 96.45 111.15 97.24C111.166 97.423 111.166 97.607 111.15 97.79C110.97 98.33 110.07 98.11 108.78 97.63C104.91 96.17 100.22 97.16 95.26 97.63L84.4 98.72L84.39 98.66Z" fill="currentColor"/>
<path d="M89.2 117.88C85.2 118 81.2 117.95 77.28 118.03L72.95 118.15C67.86 118.21 62.78 118.27 57.72 118.64L54.32 118.92L50.93 119.1C48.0909 119.173 45.2604 119.447 42.46 119.92C41.62 120.1 41.59 119.71 42.22 119.12C43.2875 118.265 44.5794 117.737 45.94 117.6C48.94 117.21 51.94 117.17 54.77 116.99C57.6 116.81 60.68 116.53 63.65 116.47C67.21 116.4 70.9 116.15 74.53 116.04L86.53 115.73C88.97 115.66 91.41 115.54 93.83 115.31C95.6586 115.141 97.4775 114.881 99.28 114.53L100.62 114.24C101.038 114.137 101.449 114.007 101.85 113.85C102.655 113.532 103.412 113.104 104.1 112.58C106.169 110.89 107.583 108.531 108.1 105.91C108.25 105.35 108.29 104.79 108.39 104.21C108.65 102.07 108.73 101.37 109.28 100.83C109.387 100.695 109.508 100.571 109.64 100.46C109.85 100.32 110.06 100.46 110.27 100.9C110.404 101.169 110.512 101.45 110.59 101.74C110.681 102.139 110.748 102.543 110.79 102.95C111.007 105.836 110.262 108.713 108.67 111.13C107.025 113.767 104.441 115.683 101.44 116.49C97.429 117.361 93.3435 117.843 89.24 117.93L89.2 117.88Z" fill="currentColor"/>
<path d="M60.38 28.89C59 28.89 57.61 28.83 56.23 28.84L54.72 28.9C52.94 28.9 51.16 28.9 49.4 29.07C48.6188 29.126 47.8411 29.2228 47.07 29.36C46.58 29.46 46.07 29.54 45.62 29.67C45.38 29.67 45.14 29.78 44.9 29.82C44.66 29.86 44.45 29.95 44.21 30C43.97 30.05 43.83 29.83 43.98 29.5C44.0931 29.2653 44.2524 29.0558 44.4482 28.884C44.6441 28.7122 44.8725 28.5816 45.12 28.5C47.1376 27.8538 49.2414 27.5167 51.36 27.5C52.62 27.5 53.91 27.3 55.19 27.22C56.47 27.14 57.99 27.11 59.39 27.07H61.98C63.29 27.07 64.6 27.07 65.9 27.01C66.9 27.01 67.9 26.81 68.9 26.76C69.12 26.76 69.33 26.76 69.55 26.76C70.37 26.76 70.64 26.92 70.81 27.35C70.81 27.44 70.9 27.54 70.93 27.63C70.9421 27.7113 70.9317 27.7943 70.9 27.8701C70.8683 27.9459 70.8164 28.0116 70.75 28.06C70.5616 28.2376 70.3251 28.3558 70.07 28.4C69.1754 28.5917 68.2706 28.732 67.36 28.82C66.44 28.89 65.51 28.92 64.57 28.94L60.39 28.99L60.38 28.89Z" fill="currentColor"/>
<path d="M59.08 49.28C57.86 49.19 56.64 49.08 55.42 49.02C54.98 49.02 54.53 49.02 54.09 49.02C52.52 48.94 50.95 48.86 49.38 48.88C48.6851 48.8848 47.9908 48.9249 47.3 49C46.42 49.09 45.55 49.23 44.66 49.24C44.38 49.24 44.37 48.98 44.56 48.69C44.8242 48.3155 45.2149 48.0492 45.66 47.94C47.4729 47.5296 49.3338 47.3715 51.19 47.47C52.3 47.53 53.44 47.41 54.57 47.41C55.7 47.41 57.06 47.41 58.29 47.47L60.58 47.57C61.73 47.57 62.89 47.69 64.04 47.68C64.92 47.68 65.8 47.56 66.68 47.54H67.25C67.97 47.54 68.19 47.71 68.35 48.15C68.35 48.24 68.43 48.34 68.45 48.43C68.4613 48.5093 68.4526 48.5903 68.4247 48.6654C68.3967 48.7405 68.3504 48.8074 68.29 48.86C68.1239 49.0281 67.9116 49.143 67.68 49.19C66.8824 49.3625 66.0738 49.4795 65.26 49.54C64.44 49.54 63.61 49.54 62.78 49.54L59.08 49.41V49.28Z" fill="currentColor"/>
<path d="M58.81 38.13C57.81 38.13 56.81 38.05 55.88 38.05C55.53 38.05 55.17 38.05 54.82 38.05C53.56 38.05 52.31 38.05 51.06 38.05C50.5047 38.0627 49.9505 38.1061 49.4 38.18C48.7 38.3036 47.9908 38.3672 47.28 38.37C47.06 38.37 47.04 38.12 47.19 37.83C47.2739 37.6575 47.3928 37.5044 47.5391 37.3804C47.6855 37.2565 47.8561 37.1644 48.04 37.11C49.4627 36.7178 50.9345 36.5326 52.41 36.56C53.3 36.56 54.21 36.42 55.11 36.37C56.01 36.32 57.11 36.29 58.11 36.27H59.93C60.85 36.27 61.78 36.27 62.69 36.27C63.4 36.27 64.1 36.07 64.8 36.02C64.9532 36.0096 65.1068 36.0096 65.26 36.02C65.84 36.02 66.02 36.17 66.15 36.6C66.15 36.69 66.22 36.79 66.24 36.88C66.2518 36.9561 66.2472 37.0338 66.2265 37.108C66.2058 37.1821 66.1695 37.251 66.12 37.31C66.0087 37.4756 65.8421 37.5961 65.65 37.65C65.0304 37.8508 64.3948 37.998 63.75 38.09C63.1 38.16 62.44 38.19 61.75 38.21H58.81V38.13Z" fill="currentColor"/>
<path d="M55.75 57.9L53.93 57.78C53.71 57.78 53.49 57.78 53.27 57.78C52.48 57.78 51.7 57.69 50.92 57.68C50.5869 57.6612 50.253 57.6612 49.92 57.68C49.4882 57.7604 49.0487 57.7906 48.61 57.77C48.47 57.77 48.45 57.54 48.53 57.3C48.567 57.1702 48.6331 57.0506 48.7232 56.9501C48.8132 56.8496 48.925 56.7709 49.05 56.72C49.9357 56.4448 50.8647 56.3363 51.79 56.4C52.3478 56.408 52.9055 56.3813 53.46 56.32C54.08 56.32 54.69 56.32 55.31 56.32H56.44C57.01 56.32 57.59 56.32 58.15 56.32C58.71 56.32 59.02 56.14 59.45 56.09C59.5431 56.0804 59.6369 56.0804 59.73 56.09C60.09 56.04 60.21 56.2 60.31 56.56C60.31 56.65 60.31 56.72 60.37 56.8C60.3919 56.9347 60.3708 57.0728 60.3098 57.1949C60.2487 57.3169 60.1509 57.4167 60.03 57.48C59.6549 57.662 59.2584 57.7964 58.85 57.88C58.446 57.9419 58.0385 57.9786 57.63 57.99C57.01 57.99 56.4 57.99 55.79 57.99L55.75 57.9Z" fill="currentColor"/>
<path d="M91.24 37C90.9714 36.7629 90.646 36.5996 90.2954 36.526C89.9449 36.4524 89.5812 36.471 89.24 36.58C88.9809 36.6756 88.738 36.8105 88.52 36.98C88.0928 37.277 87.7676 37.6985 87.5887 38.187C87.4097 38.6756 87.3857 39.2074 87.52 39.71C87.6662 40.1654 87.9762 40.5502 88.39 40.79C88.9503 41.0511 89.5418 41.2393 90.15 41.35C90.34 41.41 90.37 41.85 90.15 42.28C90.0423 42.5215 89.8565 42.7198 89.6226 42.8431C89.3887 42.9664 89.1201 43.0076 88.86 42.96C87.8354 42.7199 86.939 42.1021 86.35 41.23C86.0707 40.7886 85.8857 40.2943 85.8066 39.7781C85.7274 39.2618 85.7558 38.7348 85.89 38.23C86.1595 37.0555 86.8772 36.0328 87.89 35.38C88.4449 35.0489 89.0731 34.8601 89.7186 34.8305C90.3642 34.8008 91.007 34.9312 91.59 35.21C92.2704 35.5601 92.8361 36.0981 93.22 36.76C93.7774 37.7441 93.9247 38.9081 93.63 40C93.4258 40.8965 92.8899 41.6824 92.13 42.2C91.9625 42.3155 91.7852 42.4159 91.6 42.5C90.88 42.76 90.6 42.62 90.44 42.18C90.44 42.08 90.36 41.98 90.33 41.88C90.3109 41.7137 90.3452 41.5456 90.4279 41.4C90.5106 41.2544 90.6374 41.1389 90.79 41.07C91.1999 40.873 91.5422 40.5588 91.7736 40.1672C92.005 39.7756 92.1151 39.3242 92.09 38.87C92.0851 38.5146 92.005 38.1642 91.8551 37.8419C91.7051 37.5196 91.4887 37.2327 91.22 37H91.24Z" fill="currentColor"/>
<path d="M92.39 31.59C91.2342 31.1491 89.9852 31.0095 88.7606 31.1845C87.536 31.3594 86.3761 31.8431 85.39 32.59C84.6659 33.1548 84.0349 33.8297 83.52 34.59C82.5874 35.9443 82.0791 37.5457 82.06 39.19C82.06 39.4 82.06 39.6 82.06 39.81L82.14 40.42C82.3201 41.6512 82.801 42.819 83.54 43.82C84.4674 44.9974 85.746 45.8486 87.19 46.25C89.0509 46.7214 90.9966 46.7488 92.87 46.33C93.45 46.23 93.6 46.76 93.22 47.43C92.9255 47.9016 92.5178 48.2922 92.0341 48.5663C91.5504 48.8405 91.0059 48.9895 90.45 49C87.9849 49.1003 85.5599 48.352 83.58 46.88C82.5777 46.1057 81.7554 45.1231 81.17 44C80.8768 43.4553 80.6485 42.878 80.49 42.28L80.25 41.41C80.25 41.11 80.18 40.8 80.14 40.5C79.9806 39.0528 80.1135 37.5883 80.531 36.1934C80.9484 34.7985 81.6418 33.5018 82.57 32.38C83.3942 31.4008 84.4075 30.5979 85.5491 30.0192C86.6908 29.4405 87.9374 29.098 89.2144 29.0121C90.4915 28.9262 91.7727 29.0987 92.9816 29.5193C94.1904 29.9399 95.3021 30.6 96.25 31.46C97.3193 32.4234 98.1844 33.5915 98.7942 34.8952C99.4039 36.199 99.746 37.6118 99.8 39.05C99.9107 41.3172 99.1606 43.5425 97.7 45.28C97.3799 45.6651 97.0251 46.0199 96.64 46.34C95.13 47.48 94.43 47.47 93.9 47.11C93.7704 47.0298 93.6497 46.9359 93.54 46.83C93.24 46.45 93.77 45.94 94.64 45.29C95.9471 44.3458 96.9116 43.002 97.3879 41.4614C97.8641 39.9208 97.8263 38.2672 97.28 36.75C96.8908 35.5833 96.249 34.5167 95.4003 33.6265C94.5516 32.7363 93.5169 32.0444 92.37 31.6L92.39 31.59Z" fill="currentColor"/>
<path d="M88.22 52.25C88.3655 52.1884 88.5219 52.1567 88.68 52.1567C88.838 52.1567 88.9944 52.1884 89.14 52.25C89.339 52.3923 89.5116 52.5683 89.65 52.77C89.8136 53.0802 89.9123 53.4204 89.94 53.77L90.14 55.48C90.22 56.28 90.31 57.09 90.45 57.82C90.4705 57.9875 90.5286 58.1481 90.62 58.29C90.62 58.34 90.73 58.42 90.78 58.37C90.8747 58.2607 90.9492 58.1354 91 58C91 57.94 91.23 57.27 91.36 56.8C91.63 55.8 91.87 54.74 92.08 53.69C92.29 52.64 92.48 51.61 92.64 50.57C92.7848 49.2127 93.0628 47.8729 93.47 46.57C93.63 46.15 93.89 46.3 94.11 46.71C94.4025 47.2876 94.5305 47.9345 94.48 48.58C94.1886 51.3552 93.6668 54.1014 92.92 56.79C92.74 57.44 92.56 58.08 92.37 58.73C92.3 58.96 92.21 59.19 92.13 59.42C92.0494 59.6274 91.9525 59.828 91.84 60.02C91.6581 60.3334 91.4209 60.6112 91.14 60.84C90.9926 60.88 90.8373 60.88 90.69 60.84C90.5418 60.8113 90.3997 60.7571 90.27 60.68C90.0093 60.5104 89.7932 60.2806 89.64 60.01C89.4579 59.6971 89.3199 59.3606 89.23 59.01C89.23 58.82 89.13 58.64 89.09 58.45L89 58C88.92 57.51 88.86 57 88.81 56.57L88.66 55.16C88.6461 54.932 88.6194 54.705 88.58 54.48C88.5704 54.403 88.5467 54.3284 88.51 54.26C88.42 54.14 88.3 54.26 88.23 54.32C88.1394 54.3958 88.0558 54.4795 87.98 54.57L87.86 54.7L87.69 54.9L87.24 55.49L86 57.1C85.5569 57.7336 84.9969 58.2766 84.35 58.7C84.1517 58.8392 83.9117 58.9062 83.67 58.89C83.35 58.8 83.31 58.53 83.24 58.33C83.0719 57.5287 83.0719 56.7013 83.24 55.9L83.4 54.7L83.52 53.7L83.6 52.85C83.72 51.85 83.82 51.56 84.22 51.3C84.3 51.24 84.38 51.16 84.46 51.11C84.69 50.91 85.16 51.43 85.2 52.32C85.2502 52.9256 85.2502 53.5344 85.2 54.14L85.1 55.03L85.05 55.47V55.57C85.05 55.62 85.12 55.57 85.12 55.57L85.21 55.46L85.64 54.91L86.54 53.79L86.94 53.31C87.08 53.13 87.23 52.98 87.38 52.81C87.6402 52.5341 87.953 52.3131 88.3 52.16L88.22 52.25Z" fill="currentColor"/>
<path d="M79.16 97.71L70.67 98.54L67.57 98.88C63.93 99.22 60.27 99.49 56.57 99.68L51.7 99.89C50.7 99.89 49.62 99.97 48.58 99.97C47.54 99.97 46.5 99.85 45.47 99.77C44.83 99.71 44.91 99.64 45.47 99.51C46.03 99.38 47.02 99.13 48.2 98.96C52.4 98.74 56.58 98.34 60.82 98.17C63.36 98.04 65.99 97.69 68.57 97.41L77.12 96.48C78.88 96.3 80.61 96.12 82.34 95.83L90.23 94.5C92.23 94.15 94.23 93.76 96.31 93.5L97.66 93.35C99.36 93.22 99.91 93.35 100.27 93.76C100.358 93.8458 100.439 93.9395 100.51 94.04C100.67 94.36 99.99 94.64 98.79 94.77C95.23 95.18 91.49 95.77 87.7 96.44C84.89 96.91 82.04 97.44 79.14 97.73L79.16 97.71Z" fill="currentColor"/>
<path d="M31 45.43C31 41.04 30.84 36.65 30.47 32.29C30.33 30.7 30.1 29.12 29.9 27.54C29.5796 24.7752 29.0413 22.04 28.29 19.36C27.9418 18.0843 27.3987 16.87 26.68 15.76C26.399 15.327 25.9849 14.9971 25.5 14.82C25.0089 14.7724 24.5183 14.9156 24.13 15.22C23.2781 15.9476 22.6677 16.9172 22.38 18C22.0266 19.1625 21.7757 20.3537 21.63 21.56C21.58 21.95 21.53 22.34 21.49 22.73V23.26V23.38C21.49 23.38 21.56 23.38 21.6 23.38H22.65C24.303 23.3926 25.9496 23.5871 27.56 23.96C28.63 24.29 28.25 24.76 27.35 25.1C26.0005 25.5951 24.5659 25.8161 23.13 25.75L21.77 25.7C21.36 25.7 20.94 25.7 20.55 25.62C20.3657 25.6024 20.1844 25.5621 20.01 25.5L19.84 25.35L19.73 25.15L19.6 25V24.95C19.25 25.24 19.5 25.03 19.42 25.09V24.97L19.33 24.48C19.2415 24.1536 19.1911 23.818 19.18 23.48L19.3 22.38L19.39 21.75C19.5962 20.002 20.016 18.2858 20.64 16.64C20.9933 15.7076 21.5229 14.852 22.2 14.12C22.5946 13.7047 23.0624 13.3657 23.58 13.12C23.8467 12.9861 24.1288 12.8854 24.42 12.82C24.8994 12.6962 25.4006 12.6831 25.8858 12.7819C26.3709 12.8807 26.8272 13.0886 27.22 13.39C27.6503 13.7173 28.028 14.1085 28.34 14.55C28.8379 15.315 29.2409 16.1377 29.54 17C30.2314 18.9576 30.7795 20.9629 31.18 23C31.6 25 31.93 27.06 32.18 29.09C32.69 33.55 32.93 38.02 33.03 42.49C33.09 45.24 33.03 48 33.03 50.74C32.96 54.91 32.72 59.08 32.42 63.21C32.18 66.41 31.97 69.56 31.51 72.74C31.41 73.43 31.32 74.12 31.18 74.82C30.66 77.42 30.18 78.21 29.52 78.58C29.3683 78.673 29.2075 78.75 29.04 78.81C28.53 78.9 28.55 77.81 28.87 75.98C29.7509 70.2545 30.3284 64.4865 30.6 58.7C30.83 54.3 30.95 49.86 30.9 45.44L31 45.43Z" fill="currentColor"/>
<path d="M24.14 113.67C24.5778 114.117 25.1052 114.467 25.6877 114.696C26.2703 114.926 26.8947 115.029 27.52 115C27.757 115.002 27.993 114.968 28.22 114.9C28.4545 114.85 28.6851 114.783 28.91 114.7C30.6504 114.085 32.1404 112.915 33.15 111.37C33.6537 110.661 34.1049 109.915 34.5 109.14C34.9782 108.099 35.5683 107.113 36.26 106.2C36.49 105.92 36.72 106.12 36.84 106.53C36.9985 107.079 36.9774 107.664 36.78 108.2C36.3319 109.284 35.8038 110.334 35.2 111.34C34.582 112.416 33.8144 113.399 32.92 114.26C31.8226 115.438 30.421 116.289 28.87 116.72C27.4612 117.085 25.9697 116.954 24.646 116.35C23.3222 115.745 22.2467 114.704 21.6 113.4C20.9203 111.972 20.6735 110.376 20.89 108.81C20.9786 107.653 21.1932 106.51 21.53 105.4C21.6 105.16 21.67 104.93 21.75 104.69C22.1 103.83 22.36 103.61 22.65 103.5L22.84 103.43C23.04 103.43 23.07 103.82 23.02 104.51C22.6388 106.415 22.4977 108.36 22.6 110.3C22.686 110.936 22.854 111.558 23.1 112.15C23.3646 112.707 23.727 113.211 24.17 113.64L24.14 113.67Z" fill="currentColor"/>
<path d="M61.4 118.68C59.9 118.68 58.4 118.79 56.9 118.89L55.27 119.03C53.34 119.16 51.4 119.25 49.48 119.42C48.62 119.49 47.77 119.62 46.93 119.75C46.39 119.84 45.86 119.97 45.31 120.03C44.76 120.09 44.22 120.11 43.67 120.11C43.32 120.11 43.32 119.84 43.56 119.51C43.8877 119.05 44.3483 118.701 44.88 118.51C47.0922 118.05 49.3412 117.789 51.6 117.73C52.96 117.73 54.35 117.46 55.73 117.35C57.11 117.24 58.73 117.13 60.29 117.04L63.1 117L67.35 116.83C68.45 116.83 69.53 116.61 70.63 116.6C70.87 116.6 71.12 116.6 71.36 116.6C71.6 116.6 71.78 116.6 71.94 116.67C72.0784 116.71 72.2099 116.771 72.33 116.85C72.5036 116.946 72.6354 117.103 72.7 117.29C72.7369 117.364 72.767 117.441 72.79 117.52C72.79 117.74 72.43 117.92 71.79 118.06C69.8398 118.352 67.8718 118.509 65.9 118.53L61.38 118.74L61.4 118.68Z" fill="currentColor"/>
<path d="M25.22 75.58C25.96 71.58 26.58 67.49 26.99 63.41C27.13 61.91 27.26 60.41 27.37 58.93C27.84 53.67 28.1 48.38 28.13 43.09C28.13 40.74 28.05 38.38 27.93 36.09C27.76 33.09 27.56 30.09 27.48 27.09C27.48 26.16 27.8 26.25 28.22 27.01C28.8304 28.2341 29.2133 29.559 29.35 30.92C29.52 32.46 29.65 33.99 29.77 35.53C29.89 37.07 29.89 38.62 29.93 40.16C29.97 41.7 29.93 43.25 29.93 44.8C29.93 46.35 29.81 47.9 29.76 49.46C29.62 51.31 29.57 53.21 29.48 55.11C29.39 57.01 29.29 58.93 29.09 60.82C28.67 64.98 28.14 69.14 27.39 73.25L26.7 77L25.85 80.76C25.47 82.67 24.92 84.54 24.41 86.42C24.14 87.36 23.93 88.31 23.62 89.23C23.31 90.15 23 91.1 22.73 92C22.29 93.44 21.87 94.86 21.33 96.25C20.79 97.64 20.33 99.04 19.8 100.43L19 102.23C17.9 104.42 17.46 105.08 17 105.43C16.9008 105.515 16.7974 105.595 16.69 105.67C16.43 105.79 16.69 104.81 17.28 103.14C19.17 98.22 20.95 93 22.45 87.66C22.94 85.66 23.51 83.66 23.95 81.66C24.39 79.66 24.86 77.66 25.19 75.58H25.22Z" fill="currentColor"/>
</svg>
