<svg width="128" height="128" viewBox="0 0 128 128" fill="none" xmlns="http://www.w3.org/2000/svg">
<path d="M82 29C82.6227 26.1109 84.0438 23.4545 86.1016 21.3331C88.1593 19.2117 90.7712 17.7104 93.64 17L92 16.26C91.7 18.2856 91.7 20.3444 92 22.37C92.11 23.44 95 22.78 94.9 21.6C94.6398 19.7208 94.66 17.8133 94.96 15.94C95.12 15.09 93.72 15.19 93.29 15.3C86.51 17.02 80.52 22.3 79.17 29.3C78.94 30.51 81.87 30.06 82.08 28.98L82 29Z" fill="#221F1F"/>
<path d="M18.52 66C18.3034 63.776 18.2866 61.537 18.47 59.31C18.6772 57.0828 19.0923 54.8798 19.71 52.73C20.9248 48.3987 23.0486 44.3761 25.94 40.93C27.3988 39.1967 29.08 37.6634 30.94 36.37C31.868 35.7165 32.8403 35.1284 33.85 34.61C34.1 34.49 34.35 34.34 34.61 34.23L35.43 33.92C35.98 33.72 36.52 33.49 37.07 33.32C41.51 32.14 45.89 32.14 50.19 32.17C56.47 32.28 62.66 32.64 68.82 32.62C72.5721 32.6289 76.3217 32.4219 80.05 32L82.82 31.64C83.75 31.51 84.65 31.29 85.57 31.12L86.94 30.86C87.4 30.76 87.84 30.62 88.29 30.5L90.6 29.87L91.2 29.11C91.48 28.75 91.78 28.4 92.08 28.05C92.68 27.35 93.3 26.67 93.95 26.05C95.2382 24.7275 96.6183 23.4978 98.08 22.37C101.029 20.0068 104.509 18.3971 108.22 17.68C109.169 17.5318 110.13 17.4683 111.09 17.49C111.33 17.49 111.57 17.49 111.81 17.49L112.62 17.57L113.14 17.65L113.6 17.8L114.51 18.09C114.85 18.09 114.97 18.47 115.05 18.74C115.111 19.0527 115.131 19.3721 115.11 19.69C115.11 20.02 115 20.37 114.95 20.69L114.83 21.17L114.73 21.51C114.48 22.41 114.18 23.27 113.88 24.13C112.64 27.54 111.24 30.84 109.79 34.13L109.48 34.85L110.1 36C110.38 36.52 110.64 37 110.9 37.58C111.42 38.64 111.9 39.7 112.39 40.79C113.33 42.95 114.177 45.15 114.93 47.39C116.465 51.8602 117.426 56.5075 117.79 61.22C118.023 64.4134 117.814 67.6236 117.17 70.76C116.507 73.9423 115.244 76.9694 113.45 79.68C111.604 82.3516 109.278 84.6574 106.59 86.48C105.27 87.3889 103.887 88.201 102.45 88.91C101.73 89.26 100.99 89.54 100.26 89.91C99.5231 90.2182 98.7684 90.482 98 90.7C94.23 91.9 94.6 91.05 97.43 89.36C100.26 87.67 105.5 84.79 109.73 79.7C112.102 76.7604 113.723 73.2868 114.45 69.58C115.132 65.7781 115.19 61.8904 114.62 58.07C114.052 54.1673 113.094 50.3315 111.76 46.62C111.093 44.7533 110.36 42.9067 109.56 41.08C109.15 40.18 108.73 39.27 108.29 38.38L107.62 37.06L107.21 36.31L106.51 35L108.22 31.12C108.66 30.12 109.12 29.04 109.55 28C110.41 25.92 111.26 23.82 111.95 21.73L112.19 20.96L112.34 20.43C112.365 20.3349 112.365 20.235 112.34 20.14C112.249 20.1122 112.155 20.0921 112.06 20.08C111.92 20.08 111.58 20.01 111.35 20.01H110.59C108.489 20.0502 106.418 20.5127 104.5 21.37C102.089 22.4691 99.857 23.9254 97.88 25.69C96.8671 26.5779 95.9055 27.5228 95 28.52C94.53 29.02 94.08 29.52 93.64 30.06L93 30.86L92.66 31.31L92.13 32.04L88.08 33.17C86.84 33.47 85.59 33.68 84.34 33.95C81.84 34.38 79.34 34.71 76.78 34.89C71.7439 35.2279 66.693 35.2913 61.65 35.08C57.35 34.95 53.06 34.71 48.81 34.68C44.56 34.65 40.27 34.81 36.53 36.22C32.7276 37.802 29.4315 40.396 27 43.72C24.505 47.055 22.74 50.8779 21.82 54.94C20.6506 59.966 20.6832 65.197 21.9151 70.2081C23.147 75.2192 25.5435 79.8691 28.91 83.78C29.65 84.61 30.39 85.45 31.21 86.21C31.598 86.6131 32.0086 86.9937 32.44 87.35L34.05 88.75L33.99 89.63V90.36V91.53C33.99 92.31 33.99 93.1 33.99 93.88C34.0393 95.4381 34.1896 96.9913 34.44 98.53C34.6524 100.057 35.0313 101.556 35.57 103C36.084 104.355 36.9176 105.566 38 106.53C39.0838 107.421 40.4718 107.855 41.87 107.74C42.5619 107.676 43.2343 107.477 43.8487 107.152C44.4631 106.828 45.0073 106.385 45.45 105.85C46.3736 104.699 47.0202 103.351 47.34 101.91C47.43 101.54 47.54 101.18 47.61 100.81L47.78 99.68C47.9118 98.8088 47.992 97.9306 48.02 97.05C48.0583 96.7402 48.1287 96.4352 48.23 96.14C48.23 96 48.41 95.89 48.54 95.84C48.6873 95.7755 48.8417 95.7285 49 95.7C49.3306 95.648 49.6655 95.6279 50 95.64L51 95.7C55.21 96.06 59.31 96.48 63.42 96.56C65.47 96.56 67.51 96.56 69.54 96.46C70.54 96.4 71.54 96.32 72.54 96.2L74 96L74.79 95.87L76 95.67C76.1762 95.6511 76.3538 95.6511 76.53 95.67L76.98 95.73C77.0606 95.7269 77.1407 95.7445 77.2125 95.7813C77.2843 95.8181 77.3454 95.8727 77.39 95.94C77.4937 96.0615 77.5811 96.1959 77.65 96.34C77.904 97.0171 78.0556 97.7282 78.1 98.45C78.23 99.45 78.36 100.37 78.54 101.3C78.8213 103.097 79.457 104.821 80.41 106.37C80.9987 107.307 81.892 108.014 82.94 108.37C83.1933 108.456 83.4546 108.516 83.72 108.55C83.8499 108.558 83.9801 108.558 84.11 108.55C84.1998 108.557 84.2901 108.557 84.38 108.55C84.9128 108.449 85.4259 108.263 85.9 108C86.7699 107.576 87.5401 106.973 88.16 106.23C88.41 105.85 88.69 105.52 88.89 105.15C89.09 104.78 89.3 104.42 89.44 104.06L89.85 102.99C89.9606 102.662 90.054 102.328 90.13 101.99C90.21 101.66 90.32 101.36 90.38 101.07L90.53 100.21C90.77 99.13 90.83 98.21 90.99 97.5C91.15 96.79 91.23 96.17 91.4 95.63C91.5096 95.1384 91.6499 94.6541 91.82 94.18C92.07 93.68 92.36 94.44 92.64 96.3C93.0375 99.2369 92.7289 102.226 91.74 105.02C90.8835 107.397 89.1324 109.345 86.86 110.45C86.2648 110.729 85.6363 110.93 84.99 111.05C84.6058 111.133 84.2123 111.163 83.82 111.14C83.4841 111.114 83.1502 111.067 82.82 111C81.4735 110.719 80.235 110.06 79.25 109.1C77.5538 107.259 76.4253 104.967 76 102.5C75.74 101.36 75.57 100.21 75.43 99.1L75.37 98.69V98.62V98.55C75.37 98.48 75.3 98.55 75.25 98.55H75.11L74.23 98.68C73.64 98.77 73.05 98.84 72.46 98.9C71.28 99.02 70.1 99.11 68.92 99.16C66.56 99.26 64.2 99.24 61.85 99.16C59.5 99.08 57.15 98.89 54.85 98.68L51.38 98.36H50.65V98.51C50.65 98.81 50.65 99.12 50.57 99.42L50.29 101.28C50.18 101.91 49.99 102.53 49.84 103.16C49.69 103.79 49.38 104.41 49.16 105.03C48.5806 106.344 47.7324 107.523 46.67 108.49C45.5195 109.51 44.0931 110.168 42.57 110.38C41.9058 110.462 41.2342 110.462 40.57 110.38L40.04 110.29L39.6 110.18C39.2919 110.12 38.9905 110.029 38.7 109.91C37.4886 109.453 36.4 108.72 35.52 107.77C33.9953 106.018 32.921 103.921 32.39 101.66C31.8436 99.5926 31.5086 97.4751 31.39 95.34C31.32 94.28 31.29 93.23 31.29 92.19C31.29 91.66 31.29 91.19 31.29 90.61V89.94L30.67 89.4C30.2 89.02 29.78 88.6 29.35 88.18C28.47 87.37 27.68 86.47 26.88 85.58C25.3299 83.7429 23.9508 81.768 22.76 79.68C20.4102 75.4603 18.947 70.8052 18.46 66H18.52Z" fill="#221F1F"/>
<path d="M46.94 106.94C46.94 106.94 52.79 106.94 54.1 109.26C55.41 111.58 37.91 112.83 37.91 108.62C37.91 108.62 45.82 109.19 46.94 106.94Z" fill="#221F1F"/>
<path d="M89.77 107.43C89.77 107.43 95.43 107.43 96.77 109.75C98.11 112.07 80.58 113.32 80.58 109.11C80.55 109.11 88.64 109.67 89.77 107.43Z" fill="#221F1F"/>
<path d="M8.83 61.45C8.75 61.15 8.62 60.94 8.63 60.91C8.64 60.88 8.63 60.91 8.69 60.79C8.70574 60.748 8.72585 60.7078 8.75 60.67V60.56C8.76289 60.6471 8.79726 60.7296 8.85 60.8C8.70858 60.8853 8.60489 61.0211 8.56 61.18C8.43985 61.499 8.38872 61.8398 8.41 62.18C8.46439 62.758 8.60599 63.3244 8.83 63.86C9.01299 64.3401 9.25844 64.794 9.56 65.21C9.82913 65.5638 10.1699 65.8569 10.56 66.07C10.723 66.1569 10.9024 66.2089 11.0866 66.2227C11.2708 66.2365 11.4559 66.2117 11.63 66.15C12.0803 65.9516 12.4776 65.6502 12.79 65.27C13.4062 64.4673 13.7839 63.5074 13.88 62.5C14.0005 61.2233 13.868 59.9354 13.49 58.71C13.38 58.35 13.79 58.07 14.49 58.17C14.9195 58.271 15.3121 58.4904 15.6232 58.8033C15.9343 59.1162 16.1514 59.51 16.25 59.94C16.6387 61.7026 16.4494 63.5435 15.71 65.19C15.3305 66.074 14.7642 66.8654 14.05 67.51C13.6457 67.8943 13.1655 68.1898 12.6403 68.3775C12.115 68.5653 11.5563 68.641 11 68.6C9.73709 68.4248 8.58881 67.7738 7.79 66.78C7.08109 65.9389 6.5656 64.9523 6.28 63.89C5.90908 62.6788 5.9442 61.3795 6.38 60.19C6.64062 59.4527 7.17884 58.8463 7.88 58.5C8.31132 58.3133 8.78982 58.2644 9.25 58.36C9.66598 58.4728 10.0496 58.6817 10.37 58.97C10.9456 59.5501 11.3445 60.2819 11.52 61.08C11.7065 61.8085 11.7406 62.5677 11.62 63.31C11.4581 64.3592 11.12 65.3735 10.62 66.31C10.1627 67.2552 9.55474 68.1199 8.82 68.87C8.13829 69.5659 7.21369 69.9708 6.24 70C5.25682 69.9438 4.32366 69.5479 3.6 68.88C3.30942 68.638 3.04468 68.3666 2.81 68.07C2 67 2.06 66.46 2.55 65.92C2.66239 65.7926 2.78262 65.6724 2.91 65.56C3.35 65.23 3.91 65.48 4.5 66.01C5.28 66.82 6.37 67.35 6.5 67.12C6.66247 67.0203 6.81339 66.9029 6.95 66.77C7.28895 66.4263 7.58144 66.0397 7.82 65.62C8.25657 64.931 8.59326 64.1836 8.82 63.4C8.90194 63.0719 8.95547 62.7373 8.98 62.4C8.99044 62.2602 8.99044 62.1198 8.98 61.98C8.95178 61.8182 8.91506 61.658 8.87 61.5L8.83 61.45Z" fill="#221F1F"/>
<path d="M108 51C108.045 51.305 108.045 51.6149 108 51.92C107.988 52.2237 107.944 52.5252 107.87 52.82C107.796 53.1085 107.695 53.3896 107.57 53.66L107.48 53.86L107.33 54.1L107.01 54.57C106.694 55.0116 106.246 55.3409 105.73 55.51C105.267 55.5924 104.791 55.5423 104.356 55.3653C103.92 55.1883 103.544 54.8918 103.27 54.51C102.811 53.8995 102.549 53.1633 102.52 52.4C102.487 51.7588 102.604 51.1186 102.86 50.53C103.012 50.17 103.24 49.8469 103.528 49.5829C103.816 49.3189 104.158 49.1201 104.53 49C104.77 48.94 104.94 49.4 105.05 49.9C105.177 50.2797 105.177 50.6903 105.05 51.07C104.816 51.303 104.653 51.5978 104.58 51.92C104.506 52.266 104.506 52.6239 104.58 52.97C104.581 53.0397 104.6 53.1078 104.636 53.1678C104.672 53.2277 104.722 53.2773 104.783 53.3116C104.843 53.346 104.912 53.3639 104.982 53.3636C105.051 53.3633 105.12 53.3448 105.18 53.31C105.249 53.2755 105.31 53.2279 105.36 53.17C105.436 53.0916 105.491 52.9953 105.52 52.89C105.594 52.742 105.644 52.5834 105.67 52.42C105.718 52.2645 105.741 52.1026 105.74 51.94C105.764 51.5206 105.674 51.1025 105.48 50.73C105.357 50.4451 105.169 50.1929 104.931 49.9933C104.693 49.7937 104.412 49.6522 104.11 49.58C103.906 49.5665 103.703 49.6043 103.518 49.6899C103.332 49.7755 103.172 49.9062 103.05 50.07C103.006 50.1535 102.956 50.2338 102.9 50.31C102.75 50.38 102.66 50.5 102.49 50.47C102.269 50.4152 102.055 50.3381 101.85 50.24L101.53 50.1C101.361 50.0123 101.23 49.8667 101.16 49.69C101.113 49.5759 101.088 49.4535 101.088 49.33C101.088 49.2065 101.113 49.0841 101.16 48.97C101.338 48.5546 101.612 48.1874 101.96 47.8987C102.307 47.6101 102.719 47.4083 103.16 47.31C103.642 47.2013 104.141 47.1904 104.627 47.278C105.113 47.3656 105.576 47.5499 105.99 47.82C106.525 48.1839 106.98 48.654 107.326 49.2011C107.671 49.7481 107.901 50.3605 108 51Z" fill="#221F1F"/>
<path d="M123.37 61.11C123.37 61.11 123.37 61.11 123.43 61C123.466 60.8849 123.496 60.7681 123.52 60.65C123.58 60.41 123.64 60.17 123.68 59.91C123.78 59.4 123.85 58.91 123.9 58.34C123.95 57.77 123.9 57.57 123.9 57.19C123.9 56.81 123.9 56.45 123.96 56.34C123.96 56 123.87 55.68 123.8 55.4C123.753 55.1663 123.665 54.9428 123.54 54.74C123.427 54.58 123.26 54.4664 123.07 54.42C122.548 54.329 122.012 54.3703 121.51 54.54C120.8 54.74 120.19 55.1 119.51 55.32C119.32 55.38 119 55.05 118.89 54.54C118.824 54.2661 118.843 53.9784 118.944 53.7156C119.046 53.4528 119.226 53.2275 119.46 53.07C120.332 52.5759 121.309 52.2949 122.31 52.25C122.935 52.214 123.56 52.3307 124.13 52.59C124.463 52.756 124.759 52.9872 125 53.27C125.207 53.5185 125.372 53.7987 125.49 54.1C125.73 54.75 125.86 55.27 126.03 55.79C126.105 56.1191 126.155 56.4534 126.18 56.79C126.18 57.07 126.18 57.33 126.24 57.6C126.247 58.7751 126.16 59.9488 125.98 61.11L125.86 61.71C125.803 61.9613 125.73 62.2085 125.64 62.45C125.568 62.6889 125.447 62.9097 125.283 63.0977C125.119 63.2857 124.917 63.4365 124.69 63.54C124.519 63.6213 124.342 63.6882 124.16 63.74C124.07 63.74 123.97 63.74 123.89 63.83L123.69 63.88C123.41 63.95 123.15 63.99 122.88 64.04C122.35 64.12 121.82 64.21 121.31 64.32C120.5 64.49 119.74 64.81 118.93 65.03C118.753 65.0938 118.573 65.1473 118.39 65.19C117.69 65.3 117.39 65.1 117.21 64.29C117.18 64.1113 117.18 63.9287 117.21 63.75V63.61L117.27 63.42L117.33 63.23V63.14C117.339 63.0803 117.339 63.0197 117.33 62.96C117.347 62.8528 117.39 62.7516 117.457 62.6659C117.523 62.5802 117.61 62.5128 117.71 62.47C119.009 61.9094 120.378 61.5292 121.78 61.34L122.55 61.2C122.68 61.2 122.78 61.14 122.91 61.13H123.07C123.081 61.1398 123.095 61.1453 123.11 61.1453C123.125 61.1453 123.139 61.1398 123.15 61.13L123.37 61.11Z" fill="#221F1F"/>
<path d="M55.71 41C61.3123 42.0098 67.0473 42.0402 72.66 41.09C74.21 40.83 74.91 38.72 72.94 39.09C67.5729 40.0036 62.0878 39.9765 56.73 39.01C55.35 38.76 53.78 40.7 55.73 41.01L55.71 41Z" fill="#221F1F"/>
</svg>
