<svg width="128" height="128" viewBox="0 0 128 128" fill="none" xmlns="http://www.w3.org/2000/svg">
<path d="M44.7 68.85C44.2545 70.9234 44.5871 73.0883 45.6345 74.9323C46.6819 76.7764 48.371 78.1708 50.38 78.85C52.2918 79.5847 54.3744 79.7548 56.38 79.34C58.4097 78.9223 60.2547 77.872 61.65 76.34C62.8762 74.9303 63.662 73.1919 63.91 71.34C64.1642 69.0105 63.7112 66.6584 62.61 64.59C62.28 63.96 62.79 63.59 63.69 63.87C64.3331 64.1151 64.904 64.5186 65.3498 65.043C65.7955 65.5674 66.1017 66.1958 66.24 66.87C66.9553 69.8174 66.549 72.9255 65.1 75.59C64.3738 76.882 63.426 78.0363 62.3 79C61.1402 79.9338 59.8181 80.6457 58.4 81.1C55.0081 82.2295 51.3079 81.978 48.1 80.4C46.3528 79.4757 44.8905 78.0928 43.87 76.4C42.8747 74.7667 42.304 72.9103 42.21 71C42.102 68.0387 43.016 65.1303 44.7987 62.7632C46.5813 60.396 49.124 58.7142 52 58C54.7015 57.3627 57.545 57.8002 59.93 59.22C60.448 59.5153 60.9427 59.8496 61.41 60.22C63.12 61.69 63.34 62.44 63.13 63.16C63.0963 63.3323 63.0426 63.5001 62.97 63.66C62.83 63.88 62.55 63.89 62.18 63.72C61.6901 63.4396 61.2338 63.1041 60.82 62.72C60.44 62.36 60 62.09 59.59 61.72C59.18 61.35 58.74 61.17 58.28 60.96C57.3992 60.5075 56.4498 60.2034 55.47 60.06C53.492 59.8008 51.4857 60.2431 49.8 61.31C48.4841 62.112 47.3563 63.1881 46.4935 64.4651C45.6307 65.742 45.0531 67.1898 44.8 68.71L44.7 68.85Z" fill="currentColor"/>
<path d="M33.28 68.51C32.9295 71.5832 33.2712 74.696 34.28 77.62C35.2338 80.5593 36.908 83.2133 39.15 85.34C40.7979 86.8658 42.6911 88.1031 44.75 89C48.452 90.6903 52.5405 91.3537 56.587 90.9209C60.6336 90.4881 64.4892 88.975 67.75 86.54C70.5678 84.2955 72.7471 81.3507 74.07 78C75.7009 73.6787 76.0685 68.9825 75.13 64.46C74.84 63.07 75.47 63.02 76.39 64.12C77.7311 65.9928 78.3846 68.2711 78.24 70.57C78.0671 75.8552 76.139 80.9324 72.76 85C69.3858 89.061 64.6993 91.8163 59.51 92.79C53.2704 94.0958 46.7686 93.0637 41.24 89.89C38.2355 88.0921 35.7238 85.577 33.93 82.57C33.039 81.0795 32.3369 79.4839 31.84 77.82C31.5777 76.9958 31.3607 76.1579 31.19 75.31C31.05 74.46 30.91 73.61 30.85 72.75C30.6806 70.6372 30.7984 68.5112 31.2 66.43C31.5822 64.3539 32.2344 62.3368 33.14 60.43C34.4815 57.5361 36.3422 54.9127 38.63 52.69C40.8896 50.4502 43.5578 48.6647 46.49 47.43C51.0508 45.4423 56.1777 45.1759 60.92 46.68C61.9481 47.0139 62.9507 47.4216 63.92 47.9C67.49 49.9 68.23 51.06 68.46 52.05C68.5276 52.2713 68.5712 52.4993 68.59 52.73C68.59 53.03 68.17 53 67.59 52.73C67.1817 52.5173 66.7905 52.2732 66.42 52C65.96 51.74 65.42 51.44 64.87 51.07C63.1507 50.0356 61.301 49.2352 59.37 48.69C57.412 48.1887 55.3865 48.003 53.37 48.14C49.2578 48.4799 45.3455 50.0595 42.15 52.67C37.2249 56.5749 34.0437 62.2689 33.3 68.51H33.28Z" fill="currentColor"/>
<path d="M21.64 66.12C20.8869 70.9666 21.2044 75.9192 22.57 80.63C23.2621 82.9724 24.2147 85.2299 25.41 87.36C26.6164 89.4841 28.0919 91.4436 29.8 93.19C32.3134 95.7427 35.2502 97.8404 38.48 99.39C44.2319 102.183 50.6259 103.388 57 102.88C63.3943 102.432 69.5326 100.189 74.71 96.41C79.2391 92.9727 82.7872 88.4074 85 83.17C87.7813 76.4542 88.4782 69.0571 87 61.94C86.53 59.76 87.18 59.82 88.26 61.6C89.8351 64.6675 90.5275 68.1121 90.26 71.55C90.0749 75.5083 89.2439 79.4098 87.8 83.1C86.2965 86.7757 84.2171 90.1884 81.64 93.21C79.0291 96.214 75.9162 98.7416 72.44 100.68C68.9656 102.592 65.1976 103.913 61.29 104.59C56.5754 105.41 51.7546 105.41 47.04 104.59C44.6531 104.155 42.3103 103.506 40.04 102.65C37.7872 101.763 35.6296 100.65 33.6 99.33C29.1547 96.4162 25.5104 92.435 23 87.75C20.5159 83.0663 19.1309 77.8785 18.95 72.58C18.8246 69.3384 19.1442 66.0948 19.9 62.94C20.6635 59.8187 21.7912 56.798 23.26 53.94C25.5224 49.5982 28.5356 45.6913 32.16 42.4C35.8091 39.1536 40.0498 36.6411 44.65 35C48.2094 33.7595 51.9614 33.1635 55.73 33.24C59.4934 33.3422 63.2043 34.1495 66.67 35.62C67.06 35.78 67.45 35.91 67.82 36.09L68.92 36.65C69.6685 37.0053 70.3963 37.4026 71.1 37.84C72.9639 38.9855 74.7003 40.3264 76.28 41.84C76.9796 42.5432 77.5365 43.3752 77.92 44.29C78.047 44.5803 78.1474 44.8815 78.22 45.19C78.22 45.56 77.75 45.4 76.85 44.78C76.4 44.48 75.85 44.06 75.21 43.54C74.57 43.02 73.76 42.54 72.92 41.86C70.354 39.9756 67.5322 38.4671 64.54 37.38C61.5268 36.2896 58.354 35.705 55.15 35.65C48.582 35.6496 42.1864 37.7523 36.9 41.65C32.9016 44.5273 29.5045 48.1588 26.9 52.34C24.2585 56.5373 22.49 61.224 21.7 66.12H21.64Z" fill="currentColor"/>
<path d="M11.59 65.54C10.2491 74.8674 12.0056 84.3771 16.59 92.61C18.1429 95.3122 20.0165 97.817 22.17 100.07C23.738 101.718 25.4516 103.221 27.29 104.56C29.1395 105.891 31.0886 107.078 33.12 108.11C47.42 115.49 65.85 114.72 79.36 105.65C85.3334 101.581 90.1555 96.0386 93.36 89.56C97.3997 81.2586 98.9123 71.9535 97.71 62.8C97.31 59.99 97.97 60.19 98.99 62.55C99.6257 64.1933 100.069 65.9047 100.31 67.65C100.623 70.1502 100.623 72.6798 100.31 75.18C99.0804 85.0911 94.7064 94.3472 87.83 101.59C84.4081 105.161 80.4088 108.129 76 110.37C71.5581 112.574 66.7961 114.062 61.89 114.78C58.9424 115.197 55.9667 115.385 52.99 115.34C49.9674 115.258 46.9569 114.923 43.99 114.34C38.0206 113.165 32.3441 110.817 27.29 107.43C21.7178 103.72 17.1518 98.6862 14 92.78C10.8946 86.9068 9.13218 80.4172 8.84001 73.78C8.49793 65.6279 10.2176 57.5211 13.84 50.21C16.618 44.7135 20.3145 39.7318 24.77 35.48C29.2282 31.2687 34.4297 27.9219 40.11 25.61C44.501 23.8621 49.1575 22.8747 53.88 22.69C58.597 22.5339 63.3024 23.2492 67.76 24.8L69.24 25.29C69.73 25.46 70.18 25.7 70.66 25.9C71.59 26.33 72.56 26.72 73.48 27.21C80.28 31.02 81.79 33.21 82.64 34.64C82.8404 34.9602 83.0176 35.2944 83.17 35.64C83.27 36.06 82.67 35.84 81.52 35.09C80.95 34.72 80.23 34.21 79.41 33.58L76.41 31.58C73.0009 29.3795 69.2975 27.6725 65.41 26.51C61.4738 25.3822 57.3803 24.9025 53.29 25.09C49.1454 25.2886 45.0599 26.153 41.19 27.65C37.2858 29.1994 33.6171 31.2862 30.29 33.85L29.35 34.55L28.46 35.32L26.72 36.9L25.06 38.57C24.4934 39.1115 23.9592 39.6858 23.46 40.29L21.92 42.07C21.44 42.69 20.98 43.33 20.51 43.96C19.51 45.19 18.76 46.57 17.89 47.88C16.2858 50.5883 14.9463 53.4448 13.89 56.41C13.3547 57.8859 12.8942 59.3878 12.51 60.91C12.29 61.67 12.2 62.45 12.03 63.22C11.86 63.99 11.69 64.75 11.63 65.53L11.59 65.54Z" fill="currentColor"/>
<path d="M79.81 54.81C77.7 56.11 75.59 57.43 73.5 58.81C72.74 59.3 72.03 59.87 71.26 60.35L63.16 65.48C61.96 66.25 60.82 67.1 59.7 67.95C58.3212 69.102 56.8382 70.1231 55.27 71C54.79 71.24 54.41 70.68 54.39 69.85C54.3699 69.3682 54.4584 68.888 54.6488 68.4449C54.8391 68.0018 55.1266 67.6071 55.49 67.29C58.3684 64.9635 61.4206 62.8607 64.62 61C66.62 59.9 68.38 58.43 70.26 57.15C72.34 55.75 74.45 54.38 76.55 53L80.43 50.48C82.38 49.19 84.38 47.95 86.28 46.61C87.77 45.61 89.12 44.41 90.56 43.33C90.88 43.1 91.17 42.83 91.5 42.61C92.76 41.82 93.3 41.78 94.02 42.38C94.18 42.52 94.36 42.65 94.5 42.8C94.97 43.32 94.75 44.12 93.97 44.86C91.5383 47.0783 88.9222 49.0855 86.15 50.86L79.86 54.94L79.81 54.81Z" fill="currentColor"/>
<path d="M97.24 51.54C93.1 52.73 85.36 49 85.36 49C85.36 49 83.93 39.5 87.75 36.3C88.29 35.85 92.19 32.76 94.75 31.87C95.75 31.52 93.23 41.74 94.46 42.68C94.46 42.68 103.53 43.88 105.09 45.54L97.24 51.54Z" fill="currentColor"/>
<path d="M92.85 37.84C93.08 36.29 93.47 33.84 93.45 34.21C93.4748 34.1285 93.4748 34.0415 93.45 33.96H93.25L93.01 34.06C93.01 34.06 93.01 34.06 92.92 34.06L92.66 34.21L92.14 34.52C91.14 35.15 90.14 35.88 89.22 36.59L88.59 37.05C88.42 37.2 88.3 37.34 88.14 37.47C87.9882 37.621 87.854 37.7887 87.74 37.97C87.6006 38.147 87.4799 38.338 87.38 38.54C86.9231 39.4011 86.6058 40.3294 86.44 41.29C86.0515 43.3391 85.9339 45.4303 86.09 47.51V47.97V48.28L86.33 48.4L86.66 48.54C86.99 48.69 87.33 48.82 87.66 48.96C88.34 49.22 89.03 49.46 89.72 49.67C91.9072 50.3548 94.1882 50.6923 96.48 50.67C97.11 50.67 97.3 51.22 96.74 51.95C96.2863 52.4191 95.7246 52.7701 95.1041 52.9723C94.4836 53.1745 93.823 53.2217 93.18 53.11C91.6714 52.8718 90.1884 52.4935 88.75 51.98C88.04 51.74 87.35 51.46 86.66 51.17L85.66 50.72L84.81 50.32L83.93 50C83.87 49.49 83.81 49 83.76 48.46V48.11V47.9V47.48C83.76 46.92 83.76 46.36 83.76 45.79C83.7655 44.656 83.8457 43.5235 84 42.4C84.222 40.7398 84.6905 39.122 85.39 37.6C85.7821 36.7711 86.3285 36.0244 87 35.4C87.65 34.87 88.26 34.4 88.91 33.95C89.56 33.5 90.34 32.95 91.09 32.52L91.66 32.18C91.87 32.06 92.24 31.84 92.52 31.71C93.0768 31.4051 93.6675 31.1668 94.28 31C94.518 30.9564 94.762 30.9564 95 31C95.1031 30.9909 95.2069 30.9909 95.31 31C95.4214 31.053 95.5127 31.1407 95.57 31.25C95.8237 31.7002 95.9417 32.2142 95.91 32.73C95.8922 33.4002 95.8287 34.0684 95.72 34.73L95.53 36C95.37 37 95.21 38.06 95.08 39.07C95.02 39.58 94.96 40.07 94.93 40.58C94.93 40.81 94.93 41.12 94.93 41.26C94.9201 41.3931 94.9201 41.5268 94.93 41.66C94.93 41.81 95.02 42.01 95.2 41.98L96.96 42.29L99.08 42.72C99.79 42.87 100.49 43.03 101.2 43.21C101.998 43.3938 102.783 43.631 103.55 43.92L104.15 44.14L104.68 44.42C105.028 44.6022 105.362 44.8095 105.68 45.04C105.84 45.17 106.02 45.29 106.16 45.42L105.79 45.81L105.05 46.62L104.05 47.47L103.19 48.2L101.82 49.37C101.41 49.71 101.03 50.07 100.61 50.37C99.06 51.62 98.47 51.88 97.74 51.63C97.5714 51.5854 97.4074 51.5252 97.25 51.45C96.79 51.18 97.18 50.36 98.25 49.36C99.04 48.61 99.85 47.88 100.69 47.15L101.95 46.07L102.1 45.94C102.1 45.94 102 45.94 101.99 45.94H101.91L101.14 45.72C100.62 45.58 100.08 45.46 99.55 45.34C98.73 45.16 97.89 45 97.06 44.84L95.8 44.62L95 44.34L93.71 44.16C93.59 44.01 93.46 43.92 93.36 43.78L93 43.36C92.8043 43.0317 92.6752 42.6682 92.62 42.29C92.5575 41.9065 92.5274 41.5185 92.53 41.13C92.53 40.89 92.53 40.66 92.53 40.43C92.53 39.52 92.68 38.67 92.79 37.84H92.85Z" fill="currentColor"/>
<path d="M14.51 93.21C17.7465 99.3754 22.5822 104.556 28.51 108.21C30.6841 109.524 32.9656 110.651 35.33 111.58C43.767 114.936 52.9955 115.777 61.9 114C65.8365 113.23 69.6376 111.882 73.18 110C75.4329 108.797 77.5776 107.402 79.59 105.83C81.5819 104.24 83.4723 102.526 85.25 100.7C86.37 99.58 86.72 100.12 86.25 101.55C85.9201 102.504 85.4445 103.401 84.84 104.21C84.48 104.71 84.07 105.21 83.6 105.78C83.0909 106.296 82.557 106.786 82 107.25C73.2874 114.207 62.3236 117.723 51.19 117.13C44.4644 116.865 37.8518 115.314 31.71 112.56C24.9556 109.42 19.155 104.544 14.9 98.43C14.21 97.53 13.69 96.51 13.08 95.55C12.47 94.59 12.03 93.55 11.5 92.55C10.97 91.55 10.6 90.46 10.2 89.41C9.8 88.36 9.45 87.27 9.12 86.2C7.22079 79.6068 6.79069 72.6774 7.86 65.9C8.25092 63.31 8.82232 60.7504 9.57 58.24C10.3443 55.7583 11.3037 53.3382 12.44 51C12.9211 49.973 13.4552 48.9717 14.04 48C16.26 44.29 17.34 43.36 18.38 43C18.6071 42.9108 18.8413 42.8405 19.08 42.79C19.4 42.79 19.38 43.19 19.08 43.91C18.78 44.63 18.14 45.62 17.39 46.91C15.0063 50.8067 13.1184 54.9856 11.77 59.35C10.41 63.8148 9.70268 68.4528 9.67 73.12C9.65312 80.1158 11.3382 87.0106 14.58 93.21H14.51Z" fill="currentColor"/>
<path d="M53.36 72.42C52.9619 72.3438 52.6012 72.1355 52.3362 71.8288C52.0713 71.5221 51.9176 71.1349 51.9 70.73C51.8966 70.4267 51.9924 70.1306 52.173 69.8868C52.3535 69.6431 52.6089 69.4651 52.9 69.38C53.1046 69.3743 53.3081 69.4114 53.4975 69.4889C53.6869 69.5664 53.8581 69.6826 54 69.83C54 69.98 54.19 70.08 54.28 70.06H54.15L54.22 69.99C54.2671 69.9211 54.2978 69.8425 54.31 69.76C54.31 69.69 54.31 69.69 54.31 69.76C54.31 69.83 54.31 69.76 54.15 69.63C54.0943 69.5921 54.0337 69.5619 53.97 69.54L53.86 69.49C54.1205 69.5166 54.3832 69.4716 54.62 69.36C54.71 69.3 54.62 69.36 54.62 69.43C54.5903 69.5684 54.5903 69.7116 54.62 69.85C54.6353 70.0055 54.6759 70.1575 54.74 70.3C54.7719 70.3838 54.8121 70.4642 54.86 70.54V70.6C54.86 70.6 54.93 70.7 54.73 70.45L54.5 70.21L54.16 70C54.0963 69.9388 54.0259 69.8852 53.95 69.84L53.81 69.73C53.7297 69.681 53.6462 69.6376 53.56 69.6C53.27 69.6 53.66 69.6 54 69.33C54.2802 69.1111 54.506 68.8305 54.66 68.51C54.71 68.38 54.66 68.51 54.66 68.79C54.6578 68.9382 54.6885 69.0851 54.75 69.22C54.5913 69.0469 54.3968 68.9104 54.18 68.82L54 68.72C54.0044 68.6634 54.0044 68.6066 54 68.55C54.0152 68.3536 54.0152 68.1564 54 67.96C54 67.84 54 67.67 53.91 67.62C53.8797 67.5212 53.8113 67.4385 53.72 67.39C53.5129 67.2801 53.2992 67.1832 53.08 67.1C52.4485 66.9452 51.782 67.0307 51.21 67.34C50.9663 67.4681 50.7544 67.6492 50.59 67.87C50.3968 68.1319 50.245 68.4219 50.14 68.73C50.0395 68.9529 50.0183 69.2034 50.08 69.44C50.112 70.1862 50.2226 70.927 50.41 71.65C50.5381 72.0487 50.7306 72.4236 50.98 72.76C51.2 73.09 51.36 73.23 51.41 73.32C51.6526 73.7332 52.0475 74.0348 52.51 74.16C53.1977 74.3182 53.9123 74.3182 54.6 74.16C54.82 74.16 55.03 73.98 55.31 74.07C55.6014 74.1388 55.9046 74.1412 56.1971 74.0772C56.4896 74.0131 56.764 73.8842 57 73.7L59.18 72.7C59.5927 72.5501 60.0176 72.4363 60.45 72.36C60.84 72.25 61.08 72.83 61.02 72.97C60.84 73.36 61.27 73.38 61.46 73.54C61.5304 73.5966 61.5911 73.6641 61.64 73.74C61.1476 74.5569 60.5639 75.3151 59.9 76C59.1477 76.8539 58.259 77.577 57.27 78.14C57.22 78.14 56.75 78.42 55.91 78.71C54.8253 79.1171 53.6785 79.3337 52.52 79.35C51.1203 79.3885 49.7369 79.0427 48.52 78.35C47.8224 77.9377 47.1862 77.4294 46.63 76.84C46.1922 76.3796 45.852 75.8353 45.63 75.24C45.3916 74.7867 45.1812 74.3191 45 73.84C44.0944 71.5396 44.073 68.9852 44.94 66.67C45.2997 65.8505 45.7635 65.0808 46.32 64.38C46.9396 63.6366 47.753 63.0794 48.67 62.77C49.0109 62.6526 49.3448 62.5157 49.67 62.36C51.0331 61.773 52.5367 61.5924 54 61.84C54.3985 61.9035 54.7902 62.0039 55.17 62.14C55.5669 62.2737 55.9489 62.448 56.31 62.66C56.692 62.8872 57.0504 63.1519 57.38 63.45C57.7049 63.7732 57.9964 64.1283 58.25 64.51C58.4935 64.8902 58.6947 65.296 58.85 65.72C59.0102 66.1328 59.1243 66.5621 59.19 67L59.27 67.6C59.2796 67.7799 59.2796 67.9601 59.27 68.14C59.284 68.521 59.2639 68.9025 59.21 69.28C59.154 69.5795 59.0634 69.8714 58.94 70.15C58.7848 70.5528 58.594 70.941 58.37 71.31C58.0455 71.8762 57.5936 72.3589 57.05 72.72C56.5009 73.0853 55.8744 73.318 55.22 73.4C54.0388 73.5341 52.8496 73.2279 51.88 72.54C51.2877 72.128 50.8205 71.5605 50.53 70.9C50.3452 70.461 50.2567 69.9874 50.2705 69.5113C50.2843 69.0352 50.4001 68.5676 50.61 68.14C50.9372 67.5212 51.4153 66.9949 52 66.61C52.4781 66.2622 53.0176 66.0078 53.59 65.86C54.163 65.7045 54.767 65.7045 55.34 65.86C55.8358 66.0043 56.2923 66.2593 56.6751 66.6057C57.0579 66.9522 57.3571 67.3811 57.55 67.86C57.8531 68.6328 57.8883 69.4849 57.65 70.28C57.5015 70.795 57.2683 71.2816 56.96 71.72C56.5072 72.2513 55.865 72.5849 55.17 72.65C54.5572 72.7021 53.9403 72.6238 53.36 72.42Z" fill="currentColor"/>
<path d="M97.73 21.81C97.84 21.97 97.63 22.1 97.23 22.22C97.0429 22.2666 96.8472 22.2666 96.66 22.22C96.5575 22.1438 96.4636 22.0566 96.38 21.96C96.38 21.9 96.12 21.02 96.03 20.72C95.9509 20.4367 95.9106 20.1441 95.91 19.85L95.81 18.08C95.7902 17.9508 95.7902 17.8192 95.81 17.69C95.9212 17.2524 95.9483 16.7977 95.89 16.35C95.8946 16.2675 95.8698 16.186 95.82 16.12C95.7111 15.6311 95.6874 15.127 95.75 14.63C95.8798 14.2425 95.9899 13.8486 96.08 13.45C96.08 13.45 96.08 13.34 96.16 13.29C96.24 13.24 96.32 13.05 96.33 12.93C96.3557 12.757 96.3959 12.5864 96.45 12.42C96.45 12.34 96.6 12.26 96.69 12.18C96.78 12.1 97.06 12.18 97.09 12.18C97.12 12.18 97.33 12.18 97.45 12.18H97.58C97.8185 12.5138 98.0134 12.8768 98.16 13.26L98.24 14.01C98.24 14.39 98.34 14.78 98.36 14.86C98.3642 14.9473 98.3434 15.0341 98.3 15.11C98.3 15.11 98.46 16.28 98.45 16.32C98.45 16.56 98.5 16.79 98.32 17.02C98.3061 17.0656 98.3061 17.1144 98.32 17.16C98.3181 17.5657 98.2813 17.9706 98.21 18.37C98.21 18.57 98.21 18.78 98.21 18.98C98.2198 19.016 98.2198 19.054 98.21 19.09C98.2063 19.1366 98.2063 19.1834 98.21 19.23C98.175 19.716 98.175 20.204 98.21 20.69C98.21 20.8 98.02 21.34 98.04 21.47C98.06 21.6 97.68 21.74 97.73 21.81Z" fill="currentColor"/>
<path d="M108.62 33.86C108.57 34.07 108.31 33.99 107.89 33.77C107.711 33.6512 107.561 33.494 107.45 33.31C107.434 33.1537 107.434 32.9963 107.45 32.84C107.757 32.3901 108.091 31.9593 108.45 31.55C108.688 31.2731 108.96 31.0278 109.26 30.82C109.86 30.38 110.45 29.95 111.06 29.55C111.193 29.4574 111.342 29.3897 111.5 29.35C112.029 29.1738 112.528 28.9174 112.98 28.59C113.06 28.54 113.15 28.51 113.19 28.4C113.672 27.9982 114.22 27.6835 114.81 27.47C115.312 27.3674 115.82 27.2906 116.33 27.24C116.4 27.24 116.46 27.18 116.55 27.24C116.627 27.2811 116.713 27.3027 116.8 27.3027C116.887 27.3027 116.973 27.2811 117.05 27.24C117.269 27.2096 117.491 27.2096 117.71 27.24C117.836 27.269 117.957 27.3162 118.07 27.38C118.18 27.43 118.19 27.7 118.17 27.73C118.15 27.76 118.17 27.94 118.23 28.04C118.238 28.0762 118.238 28.1138 118.23 28.15C117.936 28.5009 117.622 28.8347 117.29 29.15C117.29 29.15 116.93 29.35 116.57 29.6C116.21 29.85 115.82 30.05 115.75 30.11C115.661 30.1587 115.561 30.1828 115.46 30.18C115.46 30.18 114.33 30.93 114.29 30.95C114.04 31.06 113.84 31.26 113.52 31.23C113.462 31.2328 113.406 31.2538 113.36 31.29C112.96 31.529 112.546 31.7427 112.12 31.93C111.907 32.0412 111.704 32.1682 111.51 32.31H111.38C111.327 32.3012 111.273 32.3012 111.22 32.31C110.737 32.6105 110.276 32.9447 109.84 33.31C109.76 33.4 109.14 33.6 109.05 33.72C108.96 33.84 108.64 33.77 108.62 33.86Z" fill="currentColor"/>
<path d="M110.35 47.37C110.13 47.37 110.18 47.06 110.35 46.64C110.462 46.4543 110.612 46.2941 110.79 46.17C110.928 46.1316 111.068 46.1049 111.21 46.09C111.29 46.09 112.11 46.42 112.42 46.47C112.692 46.5317 112.954 46.6293 113.2 46.76C113.71 46.99 114.2 47.24 114.73 47.44C114.848 47.4909 114.956 47.562 115.05 47.65C115.39 47.9415 115.8 48.1381 116.24 48.22C116.31 48.22 116.38 48.27 116.47 48.22C116.97 48.2484 117.462 48.3669 117.92 48.57C118.26 48.83 118.62 49.05 118.92 49.3C118.92 49.3 119.04 49.3 119.07 49.44C119.1 49.58 119.25 49.7 119.37 49.75C119.546 49.8202 119.703 49.9296 119.83 50.07C119.901 50.1758 119.958 50.29 120 50.41C120.016 50.5574 119.981 50.7058 119.9 50.83C119.8 50.9 119.82 51.06 119.79 51.19V51.32C119.593 51.4352 119.385 51.5323 119.17 51.61C118.952 51.6829 118.728 51.7365 118.5 51.77L117.69 51.69L116.78 51.55C116.69 51.55 116.62 51.47 116.54 51.4C116.46 51.33 115.28 51.17 115.23 51.13C114.99 51.02 114.72 51 114.55 50.72C114.537 50.6969 114.518 50.6775 114.495 50.6635C114.472 50.6495 114.447 50.6414 114.42 50.64C113.998 50.4671 113.595 50.2492 113.22 49.99C113.02 49.8714 112.813 49.7645 112.6 49.67C112.569 49.6407 112.542 49.6071 112.52 49.57C112.52 49.57 112.45 49.48 112.4 49.46C111.91 49.19 111.52 48.79 111.03 48.53C110.91 48.47 110.58 47.91 110.45 47.84C110.32 47.77 110.43 47.37 110.35 47.37Z" fill="currentColor"/>
</svg>
